<?xml version="1.0" encoding="iso-8859-1"?>
<!-- Generator: Adobe Illustrator 19.0.0, SVG Export Plug-In . SVG Version: 6.00 Build 0)  -->
<svg version="1.1" id="Layer_1" xmlns="http://www.w3.org/2000/svg" xmlns:xlink="http://www.w3.org/1999/xlink" x="0px" y="0px"
	 viewBox="0 0 511.874 511.874" style="enable-background:new 0 0 511.874 511.874;" xml:space="preserve">
<path id="SVGCleanerId_0" style="fill:#FDC794;" d="M505.821,200.352c7.062-5.297,7.945-15.89,2.648-22.952
	c-11.476-15.007-20.303-19.421-58.262,0.883l-76.8,46.786c-23.835,12.359-84.745,8.828-111.228,8.828
	c0,0,62.676,4.414,37.959-32.662c-12.359-18.538-34.428-29.131-56.497-29.131h-34.428c-20.303,0-39.724-6.179-55.614-18.538
	c-37.959-28.248-109.462,27.366-109.462,27.366v158.897h123.586c17.655,0,35.31-1.766,52.966-4.414l114.759-17.655
	c3.531,0,7.945-0.883,11.476-0.883l0,0c9.71-0.883,17.655-6.179,24.717-12.359L505.821,200.352z"/>
<g>
	<path id="SVGCleanerId_0_1_" style="fill:#FDC794;" d="M505.821,200.352c7.062-5.297,7.945-15.89,2.648-22.952
		c-11.476-15.007-20.303-19.421-58.262,0.883l-76.8,46.786c-23.835,12.359-84.745,8.828-111.228,8.828
		c0,0,62.676,4.414,37.959-32.662c-12.359-18.538-34.428-29.131-56.497-29.131h-34.428c-20.303,0-39.724-6.179-55.614-18.538
		c-37.959-28.248-109.462,27.366-109.462,27.366v158.897h123.586c17.655,0,35.31-1.766,52.966-4.414l114.759-17.655
		c3.531,0,7.945-0.883,11.476-0.883l0,0c9.71-0.883,17.655-6.179,24.717-12.359L505.821,200.352z"/>
</g>
<polygon style="fill:#2872C9;" points="0,366.311 44.138,366.311 44.138,154.448 0,154.448 "/>
<path style="fill:#F9A671;" d="M141.241,269.207c-5.297,0-8.828-3.531-8.828-8.828c0-22.069,16.772-35.31,44.138-35.31h85.628
	c5.297,0,8.828,3.531,8.828,8.828s-3.531,8.828-8.828,8.828h-85.628c-26.483,0-26.483,13.241-26.483,17.655
	C150.069,265.676,146.538,269.207,141.241,269.207z"/>
<g>
</g>
<g>
</g>
<g>
</g>
<g>
</g>
<g>
</g>
<g>
</g>
<g>
</g>
<g>
</g>
<g>
</g>
<g>
</g>
<g>
</g>
<g>
</g>
<g>
</g>
<g>
</g>
<g>
</g>
</svg>
